<?xml version="1.0" standalone="no"?>
<!DOCTYPE svg PUBLIC "-//W3C//DTD SVG 1.1//EN" "http://www.w3.org/Graphics/SVG/1.1/DTD/svg11.dtd">
<svg width="102mm" height="102mm" viewBox="-51 -51 102 102" xmlns="http://www.w3.org/2000/svg" version="1.1">
<title>OpenSCAD Model</title>
<path d="
M 50.4459,-46.2337 L 50.4039,-46.4755 L 50.3502,-46.7149 L 50.2847,-46.9514 L 50.2077,-47.1844 L 50.1194,-47.4134
 L 50.0199,-47.6378 L 49.9096,-47.857 L 49.7886,-48.0705 L 49.6573,-48.2779 L 49.516,-48.4785 L 49.3651,-48.672
 L 49.2048,-48.8578 L 49.0355,-49.0355 L 48.8578,-49.2048 L 48.672,-49.3651 L 48.4785,-49.516 L 48.2779,-49.6573
 L 48.0705,-49.7886 L 47.857,-49.9096 L 47.6378,-50.0199 L 47.4134,-50.1194 L 47.1844,-50.2077 L 46.9514,-50.2847
 L 46.7149,-50.3502 L 46.4755,-50.4039 L 46.2337,-50.4459 L 45.9901,-50.4759 L 45.7453,-50.494 L 45.5,-50.5
 L -45.5,-50.5 L -45.7453,-50.494 L -45.9901,-50.4759 L -46.2337,-50.4459 L -46.4755,-50.4039 L -46.7149,-50.3502
 L -46.9514,-50.2847 L -47.1844,-50.2077 L -47.4134,-50.1194 L -47.6378,-50.0199 L -47.857,-49.9096 L -48.0705,-49.7886
 L -48.2779,-49.6573 L -48.4785,-49.516 L -48.672,-49.3651 L -48.8578,-49.2048 L -49.0355,-49.0355 L -49.2048,-48.8578
 L -49.3651,-48.672 L -49.516,-48.4785 L -49.6573,-48.2779 L -49.7886,-48.0705 L -49.9096,-47.857 L -50.0199,-47.6378
 L -50.1194,-47.4134 L -50.2077,-47.1844 L -50.2847,-46.9514 L -50.3502,-46.7149 L -50.4039,-46.4755 L -50.4459,-46.2337
 L -50.4759,-45.9901 L -50.494,-45.7453 L -50.5,-45.5 L -50.5,45.5 L -50.494,45.7453 L -50.4759,45.9901
 L -50.4459,46.2337 L -50.4039,46.4755 L -50.3502,46.7149 L -50.2847,46.9514 L -50.2077,47.1844 L -50.1194,47.4134
 L -50.0199,47.6378 L -49.9096,47.857 L -49.7886,48.0705 L -49.6573,48.2779 L -49.516,48.4785 L -49.3651,48.672
 L -49.2048,48.8578 L -49.0355,49.0355 L -48.8578,49.2048 L -48.672,49.3651 L -48.4785,49.516 L -48.2779,49.6573
 L -48.0705,49.7886 L -47.857,49.9096 L -47.6378,50.0199 L -47.4134,50.1194 L -47.1844,50.2077 L -46.9514,50.2847
 L -46.7149,50.3502 L -46.4755,50.4039 L -46.2337,50.4459 L -45.9901,50.4759 L -45.7453,50.494 L -45.5,50.5
 L 45.5,50.5 L 45.7453,50.494 L 45.9901,50.4759 L 46.2337,50.4459 L 46.4755,50.4039 L 46.7149,50.3502
 L 46.9514,50.2847 L 47.1844,50.2077 L 47.4134,50.1194 L 47.6378,50.0199 L 47.857,49.9096 L 48.0705,49.7886
 L 48.2779,49.6573 L 48.4785,49.516 L 48.672,49.3651 L 48.8578,49.2048 L 49.0355,49.0355 L 49.2048,48.8578
 L 49.3651,48.672 L 49.516,48.4785 L 49.6573,48.2779 L 49.7886,48.0705 L 49.9096,47.857 L 50.0199,47.6378
 L 50.1194,47.4134 L 50.2077,47.1844 L 50.2847,46.9514 L 50.3502,46.7149 L 50.4039,46.4755 L 50.4459,46.2337
 L 50.4759,45.9901 L 50.494,45.7453 L 50.5,45.5 L 50.5,-45.5 L 50.494,-45.7453 L 50.4759,-45.9901
 z
" stroke="black" fill="lightgray" stroke-width="0.5"/>
</svg>
