G04 #@! TF.GenerationSoftware,KiCad,Pcbnew,7.0.9-7.0.9~ubuntu22.04.1*
G04 #@! TF.CreationDate,2024-01-02T22:01:41-05:00*
G04 #@! TF.ProjectId,mobo,6d6f626f-2e6b-4696-9361-645f70636258,rev?*
G04 #@! TF.SameCoordinates,Original*
G04 #@! TF.FileFunction,Other,User*
%FSLAX46Y46*%
G04 Gerber Fmt 4.6, Leading zero omitted, Abs format (unit mm)*
G04 Created by KiCad (PCBNEW 7.0.9-7.0.9~ubuntu22.04.1) date 2024-01-02 22:01:41*
%MOMM*%
%LPD*%
G01*
G04 APERTURE LIST*
%ADD10C,0.500000*%
%ADD11C,0.100000*%
G04 APERTURE END LIST*
D10*
X164817300Y-65538001D02*
X165062097Y-65556101D01*
X165305704Y-65586100D01*
X165547494Y-65628100D01*
X165786905Y-65681799D01*
X166023401Y-65747301D01*
X166256403Y-65824301D01*
X166485399Y-65912600D01*
X166709802Y-66012099D01*
X166928995Y-66122401D01*
X167142496Y-66243399D01*
X167349901Y-66374701D01*
X167550500Y-66516001D01*
X167743997Y-66666899D01*
X167929803Y-66827200D01*
X168107500Y-66996500D01*
X168276803Y-67174201D01*
X168437097Y-67359999D01*
X168587999Y-67553500D01*
X168729303Y-67754099D01*
X168860605Y-67961501D01*
X168981599Y-68175002D01*
X169091898Y-68394202D01*
X169191400Y-68618601D01*
X169279703Y-68847601D01*
X169356699Y-69080599D01*
X169422204Y-69317099D01*
X169475900Y-69556502D01*
X169517900Y-69798300D01*
X169547899Y-70041899D01*
X169566003Y-70286700D01*
X169572000Y-70532000D01*
X169572000Y-161532000D01*
X169566003Y-161777300D01*
X169547899Y-162022097D01*
X169517900Y-162265704D01*
X169475900Y-162507494D01*
X169422204Y-162746905D01*
X169356699Y-162983401D01*
X169279703Y-163216403D01*
X169191400Y-163445399D01*
X169091898Y-163669802D01*
X168981599Y-163888995D01*
X168860605Y-164102496D01*
X168729303Y-164309901D01*
X168587999Y-164510500D01*
X168437097Y-164703997D01*
X168276803Y-164889803D01*
X168107500Y-165067500D01*
X167929803Y-165236803D01*
X167743997Y-165397097D01*
X167550500Y-165547999D01*
X167349901Y-165689303D01*
X167142496Y-165820605D01*
X166928995Y-165941599D01*
X166709802Y-166051898D01*
X166485399Y-166151400D01*
X166256403Y-166239703D01*
X166023401Y-166316699D01*
X165786905Y-166382204D01*
X165547494Y-166435900D01*
X165305704Y-166477900D01*
X165062097Y-166507899D01*
X164817300Y-166526003D01*
X164572000Y-166532000D01*
X73572000Y-166532000D01*
X73326700Y-166526003D01*
X73081899Y-166507899D01*
X72838300Y-166477900D01*
X72596502Y-166435900D01*
X72357099Y-166382204D01*
X72120599Y-166316699D01*
X71887601Y-166239703D01*
X71658601Y-166151400D01*
X71434202Y-166051898D01*
X71215002Y-165941599D01*
X71001501Y-165820605D01*
X70794099Y-165689303D01*
X70593500Y-165547999D01*
X70399999Y-165397097D01*
X70214201Y-165236803D01*
X70036500Y-165067500D01*
X69867200Y-164889803D01*
X69706899Y-164703997D01*
X69556001Y-164510500D01*
X69414701Y-164309901D01*
X69283399Y-164102496D01*
X69162401Y-163888995D01*
X69052099Y-163669802D01*
X68952600Y-163445399D01*
X68864301Y-163216403D01*
X68787301Y-162983401D01*
X68721799Y-162746905D01*
X68668100Y-162507494D01*
X68626100Y-162265704D01*
X68596101Y-162022097D01*
X68578001Y-161777300D01*
X68572000Y-161532000D01*
X68572000Y-115824000D01*
X71120000Y-115824000D01*
X71120000Y-96012000D01*
X68572000Y-96012000D01*
X68572000Y-70532000D01*
X68578001Y-70286700D01*
X68596101Y-70041899D01*
X68626100Y-69798300D01*
X68668100Y-69556502D01*
X68721799Y-69317099D01*
X68787301Y-69080599D01*
X68864301Y-68847601D01*
X68952600Y-68618601D01*
X69052099Y-68394202D01*
X69162401Y-68175002D01*
X69283399Y-67961501D01*
X69414701Y-67754099D01*
X69556001Y-67553500D01*
X69706899Y-67359999D01*
X69867200Y-67174201D01*
X70036500Y-66996500D01*
X70214201Y-66827200D01*
X70399999Y-66666899D01*
X70593500Y-66516001D01*
X70794099Y-66374701D01*
X71001501Y-66243399D01*
X71215002Y-66122401D01*
X71434202Y-66012099D01*
X71658601Y-65912600D01*
X71887601Y-65824301D01*
X72120599Y-65747301D01*
X72357099Y-65681799D01*
X72596502Y-65628100D01*
X72838300Y-65586100D01*
X73081899Y-65556101D01*
X73326700Y-65538001D01*
X73572000Y-65532000D01*
X164572000Y-65532000D01*
X164817300Y-65538001D01*
D11*
X160147000Y-105664000D02*
G75*
G03*
X160147000Y-105664000I-5658274J0D01*
G01*
X128932402Y-129159000D02*
G75*
G03*
X128932402Y-129159000I-10314402J0D01*
G01*
X110913995Y-98806000D02*
G75*
G03*
X110913995Y-98806000I-6773995J0D01*
G01*
M02*
