<?xml version="1.0" standalone="no"?>
 <!DOCTYPE svg PUBLIC "-//W3C//DTD SVG 1.1//EN" 
 "http://www.w3.org/Graphics/SVG/1.1/DTD/svg11.dtd"> 
<svg
  xmlns:svg="http://www.w3.org/2000/svg"
  xmlns="http://www.w3.org/2000/svg"
  xmlns:xlink="http://www.w3.org/1999/xlink"
  version="1.1"
  width="297.0022mm" height="210.0072mm" viewBox="0.0000 0.0000 297.0022 210.0072">
<title>SVG Image created as board-outline.svg date 2024/01/05 11:28:03 </title>
  <desc>Image generated by PCBNEW </desc>
<g style="fill:#000000; fill-opacity:1.0000;stroke:#000000; stroke-opacity:1.0000;
stroke-linecap:round; stroke-linejoin:round;"
 transform="translate(0 0) scale(1 1)">
</g>
<g style="fill:#000000; fill-opacity:0.0; 
stroke:#000000; stroke-width:0.0000; stroke-opacity:1; 
stroke-linecap:round; stroke-linejoin:round;">
</g>
<g style="fill:#000000; fill-opacity:0.0; 
stroke:#000000; stroke-width:0.0500; stroke-opacity:1; 
stroke-linecap:round; stroke-linejoin:round;">
<path style="fill:#000000; fill-opacity:0.0; 
stroke:#000000; stroke-width:0.0500; stroke-opacity:1; 
stroke-linecap:round; stroke-linejoin:round;fill:none"
d="M 164.2382,66.0324
164.6729,66.0704
165.1027,66.1462
165.5242,66.2591
165.9343,66.4084
166.3298,66.5928
166.7078,66.8110
167.0653,67.0613
167.3996,67.3419
167.7081,67.6504
167.9887,67.9847
168.2390,68.3422
168.4572,68.7202
168.6416,69.1157
168.7909,69.5258
168.9038,69.9473
168.9796,70.3771
169.0176,70.8118
169.0200,71.0300
169.0200,161.0300
169.0176,161.2482
168.9796,161.6829
168.9038,162.1127
168.7909,162.5342
168.6416,162.9443
168.4572,163.3398
168.2390,163.7178
167.9887,164.0753
167.7081,164.4096
167.3996,164.7181
167.0653,164.9987
166.7078,165.2490
166.3298,165.4672
165.9343,165.6516
165.5242,165.8009
165.1027,165.9138
164.6729,165.9896
164.2382,166.0276
164.0200,166.0300
74.0200,166.0300
73.8018,166.0276
73.3671,165.9896
72.9373,165.9138
72.5158,165.8009
72.1057,165.6516
71.7102,165.4672
71.3322,165.2490
70.9747,164.9987
70.6404,164.7181
70.3319,164.4096
70.0513,164.0753
69.8010,163.7178
69.5828,163.3398
69.3984,162.9443
69.2491,162.5342
69.1362,162.1127
69.0604,161.6829
69.0224,161.2482
69.0200,161.0300
69.0018,115.9973
75.4868,113.9376
75.6292,113.8993
75.9016,113.7866
76.1545,113.6352
76.3824,113.4483
76.5804,113.2299
76.7442,112.9848
76.8703,112.7184
76.9559,112.4363
76.9992,112.1447
77.0018,111.9973
76.9994,111.8563
76.9597,111.5770
76.8812,111.3060
76.7654,111.0488
76.6146,110.8103
76.4318,110.5955
76.2206,110.4084
75.9853,110.2529
75.7304,110.1320
75.4610,110.0481
75.1825,110.0029
74.9005,109.9973
74.6204,110.0314
74.3480,110.1045
74.0885,110.2152
73.8471,110.3612
73.6286,110.5397
73.4374,110.7472
73.2773,110.9794
73.1513,111.2318
73.1044,111.3649
69.6018,112.2973
69.5350,112.3191
69.3949,112.3246
69.2599,112.2866
69.1432,112.2088
69.0562,112.0988
69.0074,111.9673
69.0018,111.8973
69.0000,108.0000
75.4851,105.9403
75.6274,105.9020
75.8998,105.7893
76.1527,105.6378
76.3806,105.4509
76.5786,105.2325
76.7424,104.9875
76.8685,104.7210
76.9541,104.4390
76.9974,104.1474
77.0000,104.0000
76.9976,103.8589
76.9579,103.5796
76.8794,103.3087
76.7636,103.0514
76.6128,102.8130
76.4300,102.5981
76.2188,102.4111
75.9835,102.2556
75.7286,102.1347
75.4592,102.0508
75.1807,102.0056
74.8987,102.0000
74.6186,102.0341
74.3462,102.1072
74.0867,102.2179
73.8453,102.3639
73.6268,102.5424
73.4356,102.7498
73.2755,102.9821
73.1495,103.2345
73.1026,103.3675
69.6000,104.3000
69.5333,104.3217
69.3931,104.3272
69.2581,104.2892
69.1414,104.2114
69.0545,104.1014
69.0057,103.9699
69.0000,103.9000
69.0000,100.0000
75.4851,97.9403
75.6274,97.9020
75.8998,97.7893
76.1527,97.6378
76.3806,97.4509
76.5786,97.2325
76.7424,96.9875
76.8685,96.7210
76.9541,96.4390
76.9974,96.1474
77.0000,96.0000
76.9976,95.8589
76.9579,95.5796
76.8794,95.3087
76.7636,95.0514
76.6128,94.8130
76.4300,94.5981
76.2188,94.4111
75.9835,94.2556
75.7286,94.1347
75.4592,94.0508
75.1807,94.0056
74.8987,94.0000
74.6186,94.0341
74.3462,94.1072
74.0867,94.2179
73.8453,94.3639
73.6268,94.5424
73.4356,94.7498
73.2755,94.9821
73.1495,95.2345
73.1026,95.3675
69.6000,96.3000
69.5333,96.3225
69.3928,96.3287
69.2572,96.2909
69.1402,96.2129
69.0532,96.1023
69.0049,95.9702
69.0000,95.9000
69.0200,71.0300
69.0224,70.8118
69.0604,70.3771
69.1362,69.9473
69.2491,69.5258
69.3984,69.1157
69.5828,68.7202
69.8010,68.3422
70.0513,67.9847
70.3319,67.6504
70.6404,67.3419
70.9747,67.0613
71.3322,66.8110
71.7102,66.5928
72.1057,66.4084
72.5158,66.2591
72.9373,66.1462
73.3671,66.0704
73.8018,66.0324
74.0200,66.0300
164.0200,66.0300
Z" /> 
<g >
</g>
<g >
</g>
<g >
</g>
<g >
</g>
<g >
</g>
<g >
</g>
<g >
</g>
<g >
</g>
<g >
</g>
<g >
</g>
<g >
</g>
<g >
</g>
<g >
</g>
<g >
</g>
<g >
</g>
<g >
</g>
<g >
</g>
<g >
</g>
<g >
</g>
<g >
</g>
<g >
</g>
<g >
</g>
<g >
</g>
<g >
</g>
<g >
</g>
<g >
</g>
<g >
</g>
<g >
</g>
<g >
</g>
<g >
</g>
<g >
</g>
<g >
</g>
<g >
</g>
<g >
</g>
<g >
</g>
<g >
</g>
<g >
</g>
<g >
</g>
<g >
</g>
<g >
</g>
<g >
</g>
<g >
</g>
<g >
</g>
<g >
</g>
<g >
</g>
<g >
</g>
<g >
</g>
<g >
</g>
<g >
</g>
<g >
</g>
<g >
</g>
<g >
</g>
<g >
</g>
<g >
</g>
<g >
</g>
<g >
</g>
<g >
</g>
<g >
</g>
<g >
</g>
<g >
</g>
<g >
</g>
<g >
</g>
<g >
</g>
<g >
</g>
<g >
</g>
<g >
</g>
<g >
</g>
<g >
</g>
<g >
</g>
<g >
</g>
<g >
</g>
<g >
</g>
<g >
</g>
<g >
</g>
<g >
</g>
<g >
</g>
<g >
</g>
<g >
</g>
<g >
</g>
<g >
</g>
<g >
</g>
<g >
</g>
<g >
</g>
<g >
</g>
<g >
</g>
<g >
</g>
<g >
</g>
<g >
</g>
<g >
</g>
<g >
</g>
<g >
</g>
<g >
</g>
<g >
</g>
<g >
</g>
<g >
</g>
<g >
</g>
<g >
</g>
<g >
</g>
<g >
</g>
<g >
</g>
<g >
</g>
<g >
</g>
<g >
</g>
<g >
</g>
<g >
</g>
<g >
</g>
<g >
</g>
<g >
</g>
<g >
</g>
<g >
</g>
<g >
</g>
<g >
</g>
<g >
</g>
<g >
</g>
<g >
</g>
<g >
</g>
<g >
</g>
<g >
</g>
<g >
</g>
<g >
</g>
<g >
</g>
<g >
</g>
<g >
</g>
<g >
</g>
<g >
</g>
<g >
</g>
<g >
</g>
<g >
</g>
<g >
</g>
<g >
</g>
<g >
</g>
<g >
</g>
<g >
</g>
<g >
</g>
<g >
</g>
<g >
</g>
<g >
</g>
<g >
</g>
<g >
</g>
<g >
</g>
<g >
</g>
<g >
</g>
<g >
</g>
<g >
</g>
<g >
</g>
<g >
</g>
<g >
</g>
<g >
</g>
<g >
</g>
<g >
</g>
<g >
</g>
<g >
</g>
<g >
</g>
<g >
</g>
<g >
</g>
<g >
</g>
<g >
</g>
<g >
</g>
<g >
</g>
<g >
</g>
<g >
</g>
<g >
</g>
<g >
</g>
<g >
</g>
<g >
</g>
<g >
</g>
<g >
</g>
<g >
</g>
<g >
</g>
<g >
</g>
<g >
</g>
<g >
</g>
<g >
</g>
<g >
</g>
<g >
</g>
<g >
</g>
<g >
</g>
<g >
</g>
<g >
</g>
<g >
</g>
<g >
</g>
<g >
</g>
<g >
</g>
<g >
</g>
<g >
</g>
<g >
</g>
<g >
</g>
<g >
</g>
<g >
</g>
<g >
</g>
<g >
</g>
<g >
</g>
<g >
</g>
<g >
</g>
<g >
</g>
<g >
</g>
<g >
</g>
<g >
</g>
<g >
</g>
<g >
</g>
<g >
</g>
<g >
</g>
<g >
</g>
<g >
</g>
<g >
</g>
<g >
</g>
<g >
</g>
<g >
</g>
<g >
</g>
<g >
</g>
<g >
</g>
<g >
</g>
<g >
</g>
<g >
</g>
<g >
</g>
<g >
</g>
<g >
</g>
<g >
</g>
<g >
</g>
<g >
</g>
<g >
</g>
<g >
</g>
<g >
</g>
<g >
</g>
<g >
</g>
<g >
</g>
<g >
</g>
<g >
</g>
<g >
</g>
<g >
</g>
<g >
</g>
<g >
</g>
<g >
</g>
<g >
</g>
<g >
</g>
<g >
</g>
<g >
</g>
<g >
</g>
<g >
</g>
<g >
</g>
<g >
</g>
<g >
</g>
<g >
</g>
<g >
</g>
<g >
</g>
<g >
</g>
<g >
</g>
<g >
</g>
<g >
</g>
<g >
</g>
<g >
</g>
<g >
</g>
<g >
</g>
<g >
</g>
<g >
</g>
<g >
</g>
<g >
</g>
<g >
</g>
<g >
</g>
<g >
</g>
<g >
</g>
<g >
</g>
<g >
</g>
<g >
</g>
<g >
</g>
<g >
</g>
<g >
</g>
<g >
</g>
<g >
</g>
<g >
</g>
<g >
</g>
<g >
</g>
<g >
</g>
<g >
</g>
<g >
</g>
<g >
</g>
<g >
</g>
<g >
</g>
<g >
</g>
<g >
</g>
<g >
</g>
<g >
</g>
<g >
</g>
<g >
</g>
<g >
</g>
<g >
</g>
<g >
</g>
<g >
</g>
<g >
</g>
<g >
</g>
<g >
</g>
<g >
</g>
<g >
</g>
<g >
</g>
<g >
</g>
<g >
</g>
<g >
</g>
<g >
</g>
<g >
</g>
<g >
</g>
<g >
</g>
<g >
</g>
<g >
</g>
<g >
</g>
<g >
</g>
<g >
</g>
<g >
</g>
<g >
</g>
<g >
</g>
<g >
</g>
<g >
</g>
<g >
</g>
<g >
</g>
<g >
</g>
<g >
</g>
<g >
</g>
<g >
</g>
<g >
</g>
<g >
</g>
<g >
</g>
</g> 
</svg>
